<?xml version="1.0" encoding="UTF-8"?><svg id="_レイヤー_2" xmlns="http://www.w3.org/2000/svg" viewBox="0 0 930.71 662.38"><defs><style>.cls-1{fill:#333;}</style></defs><g id="_レイヤー_1-2"><path id="outline" class="cls-1" d="M734.39,572.58c-.65,3.25-2.65,6.31-4.6,8.91-49.48,66.07-117.45,99.61-199.93,70.1-27.25-9.75-48.02-27.03-72.83-40.81-31.98,20.79-63.57,41.94-102.32,47.62-29.88,4.38-52.94,3.08-80.69-8.98-38.5-16.72-66.34-49.73-86.14-85.84-12.59,10.6-29.91,19.04-46.29,21.69-80.53,13.01-115.24-86.89-113.34-151.08l-.85-1.15c-39.1-9.06-27.07-61.52-19.74-89.69,1.33-5.13,6.61-17.57,6.78-21.29.21-4.41-2.59-12.81-3.05-18.01-2.68-30.26-.6-89.4,13.82-116.16,13.47-25,45.45-39.67,73.18-37.78,13.49-26.21,30.36-50.06,50.48-71.56C228.53-6.63,330.17-21.96,432.4,36.06c10.59,6.01,20.44,13.36,29.48,21.51,14.2-12.52,29.72-23.9,46.82-32.16,44.68-21.59,94.66-31.46,143.88-21.53,78.2,15.78,135.4,77.95,173.75,144.23,35.73-9.29,64.92.34,83.21,32.81,18.88,33.5,20.38,97.6,12.15,134.5-.61,2.75-4.2,11.37-4.1,12.51.15,1.82,4.7,9.19,5.8,12.14,11.89,31.87,9.37,69.57-8.19,98.86-1.37,2.29-6.01,6.23-6.63,8.37-2.2,7.63-2.66,19.64-4.7,28.3-15.68,66.59-66.58,137-143.76,108.74-8.87-3.25-17.3-7.59-25.74-11.75ZM511.38,98.6c21.78-13.64,44.12-26.27,69-33.52,50.39-14.67,97.48-14.14,142.91,14.08,32.18,19.99,51.36,51.27,72.04,81.94,1.25.6,22.9-9.06,24.73-11.99.34-3.08-19.13-31.63-22.46-36.25-63.83-88.68-158.43-135.08-265.9-91.45-26.54,10.77-51.75,24.43-71.83,45.17-6.65-13.45-23.85-23.08-36.82-30.17C345.1-6.2,263.1-3.73,190.49,48.19c-74.92,53.57-107.75,143.55-145.25,223.75-10.98,23.49-24.81,43.5-32.12,68.88-6.65,23.07-11.42,50.55-3.72,73.76l3.73-15.75c17.73-58.2,48.89-110.64,76.78-164.22,45.1-86.62,91.15-188.52,209.97-176.01,40.03,4.22,74.4,23.11,107.49,44.49-51.77,37.5-103.5,80.75-167.79,94.19-16.97,3.55-35.31,6.43-52.68,5.3-12.55-.82-36.51-7.97-47.18-3.16-6.34,2.86-12.58,15.05-15.5,21.5-2.19,4.83-11.31,28.87-6.85,32.2.58.43,11.98,3.73,13.82,4.18,95.09,23.28,215.04-38.67,291.52-90.89,10.68-7.29,21.68-16.9,32.56-23.44,2.26-1.36,4.72-3.43,7.53-3.33,5.81.2,37.03,22.67,44.68,27.38,85.85,52.82,211.7,113.16,311.59,66.76,20.42-9.48,38.22-24.47,61.93-27.07,13.43-1.47,17.75,3,23.91,13.87,16.71,29.49,16,70.36,8.5,102.54l1.97.48c4.58-22.75,6.08-46.29,5.06-69.55-1.45-33.25-6.61-77.2-38.38-95.62-46.28-26.84-98.56,21.82-142.67,34.66-83.61,24.34-165.4-45.38-226.93-92.06l-1.06-2.42ZM790.33,165.53c.89-1.3-4.92-10.32-6.14-12.26-44.88-71.18-100.76-106.9-187.82-87.2-26.15,5.92-54.62,17.94-75.98,34.02l20.49,15.45c52.69-24.6,107.28-26.04,155.82,8.23,22.27,15.72,42.98,36.01,59.34,57.73l34.3-15.96ZM125.26,276.7c-20.92-9.76-16.04-29.47-9.63-47.36,5.64-15.73,15.09-38.26,35.19-37.78,5.88.14,14.71,5.07,19.54,1.5,2.36-1.74,9.03-13.8,11.63-17.37,48.01-65.97,100.92-94.79,182.92-66.13,3.4,1.19,11.46,5.83,14.05,6.01,2.96.21,16.96-10.3,16.43-12.45-57.25-43.45-130.71-54.77-193.92-15.96-59.05,36.26-93.93,123.34-124.56,183.44-16.91,33.17-34.21,62.93-47.99,98.01-3.95,10.05-11.83,27.69-13.29,37.71-2.14,14.69,6.03,24.92,21.2,21.2,25.54-6.27,36.53-45.27,46.7-66.3,11.74-24.29,26.94-47.91,37.72-72.28.98-2.22,5.11-10.73,4.02-12.24ZM375.37,118.59c-25.85-8.97-53.68-17.98-81.37-14.89-43.33,4.84-76.17,34.45-101.58,67.42-2.21,2.87-18.15,23.34-16.05,25.45,31.72,5.72,68.46-3.89,98.27-15.23,30.06-11.43,74.56-38.95,99.08-59.92,1.04-.89,2.08-1,1.66-2.83ZM749.37,183.57c.48-.63-4.69-7.78-5.58-8.9-17.65-22.42-51.44-51.15-77.74-62.26-39.41-16.65-82.54-10.11-120.66,6.68,19.17,15.86,40.07,30.95,61.68,43.3,35.19,20.11,81.63,37.75,122.51,27.91,6.77-1.63,13.09-4.9,19.79-6.72ZM849.37,222.58c-21.43,12.16-42.46,23.65-66.96,28.53-87.13,17.37-177.45-22.49-251.71-64.36-23.37-13.18-44.94-29.6-68.68-41.96-68.86,49.18-144.12,98.19-228.46,115.48-28.54,5.85-67.8,8.32-96.42,3.04-6.48-1.2-13.49-4.75-19.35-5.66-6.15-.95,2.4,8.44,4.1,9.91,16.39,14.16,77.23,23.47,98.96,22.01,81.17-5.47,153.87-46.52,215.99-96.01,4.53-3.61,20.91-19.71,25.1-19.97,2.68-.17,4.64,1.86,6.74,3.18,9.23,5.82,19.06,15.79,28.37,22.63,50.15,36.82,138.43,80.54,200.78,84.22,46.06,2.72,114.3-17.2,145.52-52.57.87-.98,6.71-7.77,6.02-8.47ZM95.37,154.58c-34.13,4.17-61.81,16.35-71.91,51.58-6.99,24.35-6.62,53.66-8.07,78.91l3,27.5c1.68.26,1.03-2.37,1.02-3.51-.21-26.44-2.35-48.7,9.11-73.84,6.5-14.24,23.05-38.61,41.27-33.81l25.58-46.83ZM791.36,271.58c-33.81,13.83-69.83,19.93-106.36,15.87-41.05-4.56-79.28-20.92-115.67-39.33-38.12-19.28-73.96-41.81-107.32-68.48-58.25,49.88-125.18,93.68-201.44,109.62-44.4,9.28-87.1,6.28-129.59-9.56l-29.6,59.87c27.23,2.5,48.33,20.17,66.51,38.99,20.1,20.8,37.86,43.87,50.5,70.01,16.7-9.89,33.91-19.79,52.97-24.51,58.48-14.48,111.62,2.57,159.73,35.29,12.2,8.3,23.17,18.32,35.64,26.12,33.32-30.87,74.75-58.08,120.43-65.61,31.25-5.15,67.86-1.97,96.57,11.85,8.9,4.29,16.84,10.38,25.62,14.85,7.1-13.96,17.39-26.21,27.06-38.45,20.98-26.55,47.84-60.33,79.97-73.02,2.28-.9,4.48-1.69,6.98-1.53l-32.01-61.99ZM24.36,304.57c10.5-21.01,20.35-42.35,29.48-64.02,3.09-7.35,10.85-23.15,12.14-29.93.28-1.49.54-2.32-1.26-2.88-10.36-3.24-22.13,12.26-26.77,19.92-13.58,22.47-15.52,47.66-14.58,73.43.04,1.21-.75,3.72.99,3.48ZM911.37,318.58c3.68-21.83,3.09-46.43-1.28-68.2-1.97-9.83-8.62-32.42-18.14-36.86-10.2-4.76-33.65.6-30.14,15.07,1.91,7.9,13.95,29.35,18.4,37.67,8.22,15.36,17.4,30.68,26.37,45.63,1.33,2.21,2.68,5.29,4.79,6.7ZM855.36,226.58c-2.59-.7-1.97,1.54-3.42,3.02-5.61,5.68-11.16,11.51-17.45,16.46,14.22,36.93,37.86,68.73,57.06,102.85,13.97,24.81,26.75,52.47,22.83,81.66h1.98c12.48-34.38,13.99-67.16-3.47-100.01-11.63-21.89-26.74-43.13-38.69-65.31-6.78-12.58-12.87-25.69-18.84-38.67ZM908.22,440.41c.4-6.64,2.76-13.8,3.14-20.34,2.27-39.06-41.17-94.19-60.16-127.82-7.83-13.87-13.82-28.61-21.32-42.64-10,8.21-21.64,13.99-33.51,18.99,9.68,22.46,20.99,44.52,34.2,65.27,20.9,32.82,47.47,59.88,64.65,95.35,1.85,3.82,3.24,8.05,4.37,12.14,1.35,1.75,6.77-.22,8.62-.95ZM466.36,559.58c1.85,4.56,6.14,9.31,9.5,13.01,57.45,63.3,132.92,72.7,190.49,3.46,46.15-55.51,70.32-131.18,125.5-178.5,15.85-13.59,52.43-29.35,53.57,4.5.95,28.19-20.61,89.3-45.11,104.96-19.46,12.43-32.49,3.82-49.27-7.6-1.99-1.35-3.47-4.28-5.92-3.69-6.33,3.66-10.86,9.41-14.55,15.55-4.24,7.04-15.17,30.13-8.15,36.76,3.13,2.96,20.21,9.78,24.97,11.03,62.45,16.5,98.69-67.25,109.68-115.3,3.01-13.15,7.48-35.64,7.1-48.69-.3-10.52-11.21-18.5-17.19-26.61-3.71-5.03-16.76-27.82-20.64-29.42-1.84-.76-9.66,2.15-11.95,3.04-32,12.45-73.79,65.27-93.04,93.96-24.33,36.27-62.63,112.39-98.67,133.33-45.2,26.25-80.3.86-113.32-30.29-2.2-2.07-12.24-10.93-10.84-13.38,10.79-7.2,19.91-16.51,30.54-23.95,44.83-31.35,101.67-40.76,147.82-6.28l28.48-43.43c-.04-1.72-1.81-2.95-3.06-3.91-27.14-21.01-68.67-29.58-102.29-25.43-51.28,6.34-96.95,34.19-133.13,69.68-29.87-23.42-59.01-45.67-95.26-58.57-78.83-28.05-135.74,2.5-192.26,55.23-17.58,16.4-31.5,43.01-55.96,14.98-20.8-23.84-33.31-61.55-34.07-92.93-.19-7.7-.06-13.59,6.54-18.54,24.62-18.46,63.2,23.51,76.31,41.68,7.88,10.93,14.96,23.63,19.2,36.32,2.56,2.23,19.62-15.86,23.05-17.57-4.35-12.61-10.91-23.57-18.67-34.33-15.23-21.11-59.99-72.65-86.94-73.13-3.4-.06-10.49,1.67-12.97,4.01-4.05,3.81-12.39,27.5-15.6,34.4-3.49,7.5-13.96,22.46-13.96,30.12.02,67.04,50.38,188.04,134,128.91,34.18-24.17,54.69-58.25,99.86-65.14,39.33-6,70.63,6.12,102.11,28.33l27.09,21.86c-25.85,25.42-59.46,60.96-99.21,55.26-35.2-5.05-59.44-34.83-76.58-63.42-1.23-2.06-4.41-10.76-6.63-10.27-1.28.29-17.56,16.81-18.65,18.44-.6.89-1.18,1.38-.54,2.54,5.87,9.81,9.95,20.45,15.82,30.28,23.49,39.35,64.59,69.25,112.29,65.69,45.14-3.38,83.01-33.37,110.5-66.98ZM224.37,532.58l-32.56,24c-.88,1.39,3.36,8.77,4.4,10.67,45.33,83.19,128.39,112.55,214.19,66.85,6.9-3.68,44.51-29.34,47.29-29.3,3.99.05,23.62,14.95,28.77,18.2,44.64,28.13,88.49,42.75,142.12,29.29,41.64-10.45,77.57-47.57,101.86-81.22-3.84-4.82-9.43-7.97-12.5-13.55-8.17-14.87-.02-37.06,8.62-50.24,2.62-3.99,13.96-18.63,18.3-18.62,4.13,0,21.46,16.01,23.53,14.48,14.1-25.56,31.5-50.44,50.01-73.03,4.6-5.62,20.58-20.57,21.75-26.26,2.03-9.91-7.77-17.96-17.26-17.26-25.01,1.83-65.38,53.02-78.32,73.69-32.94,52.58-68.12,137-128.93,161.07-58.52,23.17-112.24-9.43-150.76-51.74-39.22,45.31-100.14,78.25-160.17,53.15-38.12-15.93-66.29-52.23-80.34-90.17ZM158.38,502.57c1.86.31,2.89-1.3,4.02-2.47,8.4-8.68,15.33-18.53,25.46-25.49-8.75-24.87-26.56-51.24-47.02-68-15.12-12.39-47.69-25.05-44.95,6.95,21.16,21.62,41.84,45,56,71.99,2.75,5.24,6.26,11.04,6.48,17.02ZM903.37,446.58c-2.77.09-5.42.13-7.45-2.05-3.04-3.27-8.35-20.17-11.74-26.26-2.46-4.4-7.58-12.53-10.84-16.16-.67-.75-3.99-4.67-4.96-3.53.11,20.09-4.86,40.9-10.29,60.21-12.12,43.1-45.01,110.37-98.2,106.77-12.85-.87-28.44-5.12-38.02-13.98-.44,3.29,4.72,8.03,7.49,10.51,20.53,18.29,59.58,28.59,86.01,20.98,44.45-12.79,69.11-58.24,81.27-99.73,3.45-11.76,6.83-24.48,6.73-36.76ZM62.37,417.58c-10.04,4.58-16.88,15.78-28.9,17.09-1.83,16.5,1.61,33.88,5.21,50.1,15.54,69.86,64.95,124.61,138.71,81.33,1.18-.69,11.9-6.83,9.98-8.51-8.02.91-15.53,4.56-23.79,5.7-33.22,4.58-54.14-18.19-71.43-42.98-20.32-29.13-27.25-67.81-29.78-102.72ZM838.37,417.58c-11.43,11.25-22.16,24.71-31.95,37.54-6.71,8.79-30.6,39.97-31.03,49.07-.18,3.78,4.27,4.48,7.35,4.33,27.15-1.36,51.49-60.04,55.19-82.89.44-2.71.65-5.32.44-8.05ZM153.25,508.45c3.26-5.02-12.37-30.94-15.85-36.39-11.81-18.53-26.63-34.91-42.01-50.48.61,23.11,9.81,46.16,21.97,65.52,7.7,12.27,18.97,29.06,35.89,21.35ZM505.41,525.62c-.4,1.49.16,2.32.92,3.5.83,1.29,16.39,15.15,17.55,15.15,34.23-28.69,79.19-48.5,124.69-39.39,3.99.8,15.78,5.02,18.32,4.72s5.66-7.23,7.25-9.54c-.26-3.43-18.04-12.44-21.78-13.97-41.13-16.85-85.31-4.8-120.3,19.67-9.09,6.36-17.04,14.86-26.65,19.86ZM422.38,526.59c-6.01-1.23-10.73-7.32-15.53-10.98-42.1-32.1-90.62-48.07-140.14-20.2-4.69,2.64-17.99,9.14-12.68,15.25,31.43-9.98,64.67-9.01,95.6,2.17,20.02,7.23,37.45,19.45,55.27,30.76,1.1,0,14.56-12.72,16.42-14.58.82-.82,1.43-.87,1.07-2.42ZM664.38,513.59c-10.24-1.29-20.11-5.31-30.47-6.04-32.21-2.3-65.77,11.43-91.85,29.22l-14.66,11.28c27.55,24.35,55.94,37.64,91,18.05,14.5-8.1,37.8-33.2,44.82-48.18.68-1.45,1.51-2.55,1.17-4.33ZM400.37,546.6c-23.26-15.52-46.97-30.13-74.96-35.55-23.57-4.57-44.87-1.3-68.03,3.54,18.89,38.15,59.75,78.42,105.96,59.46,9.8-4.02,23.11-12.91,31.05-19.95,1.2-1.07,6.88-6.19,5.98-7.49Z"/></g></svg>