<?xml version="1.0" encoding="UTF-8"?><svg id="_レイヤー_2" xmlns="http://www.w3.org/2000/svg" viewBox="0 0 782.32 761.93"><defs><style>.cls-1{fill:#333;}</style></defs><g id="_レイヤー_1-2"><path id="outline" class="cls-1" d="M700.88,617.12l-19.48,24.01c-126.46,123.05-342.3,149.77-504.76,90.73C91.79,701.03-11.44,627.95,1.03,525.76c4.13-33.86,10.63-72.29,17.17-105.83,11.72-60.05,42.73-90.39,95.01-118.99,147.64-80.75,353.54-61.49,494.59,24.76l31.08,20.41c-58.21-62.87-141.08-98.48-224.81-112.68-100.07-16.96-211.3-5.14-299.49,46.88-4.79,2.82-20.48,14.76-24.22,14.89-1.2.04-2.35-.05-3.43-.63l-24.85-15.65,27.26-190.85C159.38,5.84,288.8-7.42,390.38,3.12c125.23,13,251.76,81.25,313.68,193.32,35.89,64.97,41.7,141.67,51.69,214.31,8.84,64.28,18.95,131.6,25.02,195.98,1.44,15.24,6.43,39.05-14.5,41.25-9.72,1.02-45.38,1.37-53.59-1.16-13.12-4.05-10.21-18.87-11.8-29.71ZM751.88,431.11c-12.51-75.31-13.87-155.85-49.82-224.67C639.89,87.44,506.54,18.07,375.38,8.13,280.54.94,161.58,14.89,95.44,90.18l-26.55,180.94c105.39-85.2,254.59-100.1,384-71.51,110.92,24.51,216.55,82.83,275.16,182.84l23.82,48.67ZM759.88,496.11c-1.65-11.57-1.8-24.73-4.46-36.03-7.9-33.65-36.36-82.98-57.58-110.42-119.86-155.02-390.36-199.04-562.32-114.4-22.72,11.18-43.13,26.24-63.63,40.88l.61,2.05,17.7,10.81c48.36-34.61,106.69-54.77,165.35-63.71,133.62-20.35,297.49,16.54,390.85,118.82,7.38,8.09,13.81,18.41,20.95,26.05,3.96,4.24,10.9,8.71,15.06,12.94,22.19,22.5,42.75,46.93,58.65,74.35l18.82,38.67ZM774.87,636.11c2.2-13.86-.55-29.25-2.11-43.37-6.87-62.05-15.68-103.2-52.06-154.94-93.33-132.74-280.45-195.33-438.31-179.67-85.55,8.48-227.61,49.33-253.77,143.23-7.43,26.67-11.08,60.69-15.45,88.55-.67,4.26-1.53,8.74-2.01,13-.12,1.1-1.16,3.41.7,3.2.05-1.53.4-3.03,1.11-4.39,74.23-142.62,274.66-168.68,418.24-147.43,139.75,20.68,290.98,94.66,335.38,238.62l8.27,43.21ZM769.89,641.11c-4.95-38.55-16.1-73.13-36.19-106.3-107.28-177.09-408.91-222.17-587.49-143.87-54.98,24.11-103.98,63.81-130.2,118.8-35.18,73.8,36.53,147.89,94.96,183.79,100.92,62.01,240.65,74.61,355.11,50.28,87.13-18.53,182.05-60.63,233.36-136.17-2.14-13.66-7.17-26.52-11.56-39.52-2.61-.46-1.54.38-2.08,1.42-77.73,151.47-310.63,189.23-460.67,143.84-84.35-25.52-199.74-103.63-149.95-206.48,40.73-84.13,168.65-115.91,254.17-118.83,141.87-4.85,358.09,67.4,378.41,230.67.91,7.32-2.05,20.38,7.86,22.14,5.5.98,10.65.13,15.72.19,12.84.14,25.71,0,38.54.03ZM335.68,394.41c-69.46,1.62-153.9,18.69-209.27,62.73-3.29,2.61-19.94,17.52-21.06,20.01-.4.88-.46,1.25-.33,2.22.59,4.18,12,18.92,15.35,22.76,74.22,85.22,224.11,94.02,326.94,67.91,60.24-15.3,120.62-46.04,159.48-95.43,0-1.46-20.04-14.11-22.98-15.91-72.15-44.04-163.54-66.26-248.12-64.29ZM98.9,485.13c-53.7,86.24,19.37,159.68,95.3,193.17,115.33,50.88,274.89,39.83,382.2-26.16,41.48-25.5,79.26-61.01,98.44-106.53-.14-4.25-22.16-30.86-26.44-35.5-3.7-4.02-34.73-33.81-37.48-31.96-11.99,18.08-29.68,33.67-47.32,46.2-89.44,63.55-225.17,80.32-329.94,51.49-51.65-14.21-103.92-42.97-132.33-89.67l-2.44-1.04ZM677.9,553.12c-6.75,16.83-18.43,34.35-30.5,48.01-97.18,110.03-284.56,139.01-420.28,96.25-75.79-23.88-166.74-83.52-151.24-175.26l-3.31,10.17c-13.15,51.15,19.53,96.99,57.87,126.78,139.37,108.3,431.63,82.41,535.27-66.64,3.72-5.35,17.54-27.44,17.19-32.74-.08-1.21-3.39-8.12-4.99-6.57Z"/></g></svg>