<?xml version="1.0" encoding="UTF-8"?><svg id="_レイヤー_2" xmlns="http://www.w3.org/2000/svg" viewBox="0 0 826.53 671.86"><defs><style>.cls-1{fill:#333;}</style></defs><g id="_レイヤー_1-2"><path class="cls-1" d="M443.26,1.09c154.75-11.35,293.03,66.6,359.06,206.34,65.7,139.05-10.83,299.39-127.54,383.17-43.45,31.19-85.99,41.86-136.08,56.92-41.18,12.38-73.17,24.99-117.77,24.31-61.19-.94-185.19-27.49-239.48-55.52-55.43-28.62-111.81-93.26-145.79-145.21C8.07,428.97-2.29,352.16.42,302.25c3.24-59.79,38.66-92.09,72.44-136.56,44.4-58.46,64.52-93.02,134.93-125.07,51.81-23.58,88.71-24.96,144.22-27.78,30.57-1.56,61.07-9.53,91.26-11.74ZM580.46,625.78c93.93-26.9,164.31-99.69,207.52-184.97,30.21-59.64,39.73-145.11,14.96-208.01C745.25,86.26,614.93,7.76,458.79,10.17c-29.77.46-58.37,7.9-87.84,10.62-14.8,1.37-29.28.34-44.03.97-78.02,3.31-158.69,36.49-208.42,97.58-31.11,38.22-59.16,81.34-89.83,120.17-14.59,23.12-19.19,51.24-19.2,78.29l5.24-16.24C82.66,131.99,254.88,124.61,412.83,142.91c105.28,12.2,188.95,43.43,263.65,120.35,104.12,107.21,73.11,253.55-45.71,332.34l-50.31,30.18ZM349.46,146.8c-75.47-4.51-156.41-.9-223.67,36.82-58.93,33.04-117.33,114.9-112.31,184.66,4.66,64.83,29.18,101.12,69.01,148.99,49.64,59.64,103.11,102.78,181.48,118.53,2.99-.05.98-1.14-.24-1.77-59.26-30.38-131.97-80.77-157.73-144.27-63.87-157.39,96.69-290.16,228.51-337.43,4.69-1.68,11.28-2.23,14.96-5.53ZM379.26,151.09c-49.15,4.04-123.61,46.4-163.12,75.88-38.2,28.51-60.74,48.4-63.72,99.28-7.68,130.9,113.89,201.38,226.84,222.25,120.99,22.35,283.45-48.83,314.53-175.88,8.94-36.53,8.47-66.76-17.3-95.35-37.9-42.05-98.6-83.49-152.26-101.74-36.33-12.36-107.49-27.51-144.97-24.43ZM706.47,320.79c8.13,80.24-44.94,150.09-109.49,191.02-110.97,70.37-238.36,63.06-349.82-2.22-75.41-44.17-121.76-128.83-98.71-216.8-50.49,63.52-64.37,145.32-21.8,217.31,32.32,54.65,136.23,123.22,197.38,138.62,54.73,13.78,121.56,19.89,175.68,1.82,69.58-23.23,153.64-69.83,195.97-131.03,40.77-58.95,45.98-131.63,13.26-195.71-.59-1.15-.93-2.77-2.47-3.02Z"/></g></svg>