<?xml version="1.0" encoding="UTF-8"?><svg id="_レイヤー_2" xmlns="http://www.w3.org/2000/svg" viewBox="0 0 937.7 669.37"><defs><style>.cls-1{fill:#333;}</style></defs><g id="_レイヤー_2-2"><path class="cls-1" d="M930.21,342.32c-.56-1.49-1.7-3.64-2.91-5.91-.83-1.55-2.14-4.02-2.59-5.15.3-1.05,1.12-3.29,1.69-4.85.98-2.7,1.91-5.25,2.25-6.75,8.85-39.71,5.93-104.22-12.52-136.98-17.96-31.87-47.16-43.98-84.56-35.12-33.19-56.62-90.13-126.54-174.77-143.63-46.59-9.4-97.1-1.86-146.1,21.81-14.94,7.22-29.78,17.26-45.28,30.65-8.96-7.83-18.29-14.51-27.77-19.89C386.1,7.24,334.8-3.82,285.18,3.63c-49.6,7.45-95.13,33.03-135.34,76.03-19.83,21.21-36.64,44.87-49.99,70.34-30.11-1.14-61.03,15.3-74.2,39.73-14.62,27.13-17.12,85.41-14.22,118.13.22,2.49.9,5.52,1.56,8.45.74,3.31,1.58,7.06,1.49,9.08-.08,1.71-2.24,7.69-3.67,11.64-1.25,3.46-2.43,6.73-3,8.93-7.13,27.44-12.82,58.13-.93,77.77,4.74,7.83,11.92,13.11,21.36,15.72-.8,42.95,14.29,102.39,49.73,133.49,19.3,16.93,42.08,23.42,67.71,19.28,15.2-2.46,31.61-9.77,44.69-19.82,23.18,40.9,52.03,69.06,85.79,83.73,26.44,11.48,49.6,14.07,82.59,9.23,38.36-5.63,70.15-26.32,100.9-46.32l1.04-.68c7.76,4.4,15.24,9.18,22.5,13.82,15.11,9.66,30.74,19.65,49.02,26.19,20.49,7.33,40.55,10.99,60.05,10.99s37.1-3.41,54.74-10.23c32.85-12.71,62.84-36.95,89.13-72.06,1.28-1.71,2.72-3.79,3.81-6.11,7.24,3.58,14.73,7.28,22.52,10.14,27.48,10.06,53.38,8.72,76.98-4,33.09-17.83,59.77-57.91,71.39-107.22.99-4.21,1.62-9.12,2.22-13.87.65-5.14,1.33-10.45,2.4-14.18.29-.67,1.93-2.45,2.91-3.51,1.34-1.46,2.61-2.84,3.38-4.12,17.67-29.48,20.91-68.52,8.46-101.88ZM817.94,583.2c-21.94,6.31-54.48-.39-75.61-14.73,6.4,2.17,13.5,3.58,20.86,4.08,1.43.1,2.85.14,4.26.14,49.18,0,83.17-58.32,97.55-109.46,4.63-16.48,9.34-35.49,10.26-54.13,2.99,3.74,7.21,10.44,9.4,14.37,1.35,2.41,3.16,7.03,4.92,11.5,3.2,8.14,5.29,13.25,7.32,15.44,1.96,2.11,4.27,2.86,6.45,3.1-.49,10.92-3.59,22.35-6.52,32.35-20.79,70.94-58.34,91.44-78.88,97.35ZM631.26,652.38c-46.92,11.78-88.61,3.15-139.4-28.85-1.33-.84-3.82-2.6-6.7-4.63-14.04-9.91-20.46-14.06-23.89-14.11h-.05c-2.18,0-5.61,1.86-30.46,18.01-8.15,5.3-15.86,10.31-18.47,11.7-40.77,21.71-82.11,26.79-119.55,14.67-36.76-11.9-67.85-39.6-89.92-80.1l-.36-.65c-1.99-3.6-2.94-5.62-3.38-6.75l27.21-20.05c16.29,40.81,46.16,73.46,80.61,87.86,28.44,11.88,59.74,11.84,90.51-.15,25.55-9.95,50.06-27.55,71.07-51.01,21.26,22.71,43.61,39,66.49,48.44,28.88,11.91,57.65,12.36,85.5,1.33,49.28-19.51,81.32-76.3,109.58-126.4,7.3-12.94,14.2-25.17,21.02-36.06,14.75-23.55,53.32-70.43,75.61-72.06,4.06-.28,8.45,1.51,11.16,4.61,1.53,1.75,3.2,4.63,2.41,8.46-.62,3.04-9.66,12.54-14.51,17.65-2.73,2.87-5.08,5.34-6.51,7.09-19.19,23.42-35.64,47.29-48.93,70.98-2-1.27-5.05-3.55-7.27-5.2-7.92-5.91-11.7-8.5-14.61-8.51h0c-7.52,0-21.1,20-21.23,20.2-7.75,11.82-18.32,36.46-8.77,53.85,2.1,3.82,5.06,6.51,7.93,9.12,1.1,1,2.17,1.97,3.15,2.97-18.59,25.28-54.69,66.68-98.22,77.6ZM45.63,487.5c-3.38-15.18-6.55-31.21-5.4-46.34,6.84-1.56,11.98-5.78,16.97-9.87,1.91-1.57,3.76-3.09,5.65-4.4,3.7,42.94,13.52,75.34,29.96,98.9,15.75,22.58,35.77,45.07,65.97,45.06,2.84,0,5.78-.2,8.81-.62,2.88-.4,5.64-1.07,8.31-1.82-25.89,14.32-49.74,16.9-70.93,7.67-27.9-12.15-49.53-44.44-59.35-88.59ZM44.48,232.96c4.78-7.91,13.89-18.67,20.89-18.67.17,0,.35,0,.52.02-1.21,4.9-5.4,14.19-8.51,21.09-1.29,2.85-2.4,5.31-3.23,7.28-7.34,17.44-15.38,35.15-23.95,52.78-.13-20.26,2.23-42.57,14.28-62.5ZM71.48,200.97c-19.3-2.62-35.72,21.18-42.61,36.29-1.81,3.97-3.29,7.88-4.5,11.74.95-13.36,2.57-26.47,5.99-38.39,7.86-27.39,27.14-42.4,62.13-48.1l-21.01,38.46ZM40.25,299.77c3.92-7.34,7.98-14.93,11.69-22.86,5.05-10.8,10.11-21.99,15.01-32.81,31.97-70.68,65.03-143.76,129.11-189.58,35.27-25.22,73.09-38.91,112.4-40.69,2.94-.13,5.87-.2,8.82-.2,35.82,0,71.98,9.85,107.63,29.33,11.57,6.32,29.06,15.88,35.37,28.65l2.2,4.45,3.45-3.57c17.07-17.63,39.51-31.73,70.63-44.36,50.48-20.49,99.85-21.79,146.75-3.86,42.65,16.31,82.42,48.86,114.99,94.12,4.47,6.21,18.19,26.71,21.26,33.09-3.9,2.59-14.62,7.52-19.14,9.14-1.3-1.93-2.59-3.86-3.88-5.79-18.57-27.76-37.77-56.46-67.86-75.16-42.55-26.43-88.86-31.03-145.74-14.47-25.8,7.51-48.83,20.74-69.87,33.91l-2.56,1.6,2.63,6.02.73.55c4.47,3.39,9.04,6.9,13.72,10.49,30.02,23.04,64.05,49.16,100.52,66.8,42.6,20.61,80.47,25.62,115.79,15.34,13.73-4,27.81-11.17,42.72-18.76,32.77-16.69,66.66-33.95,97.22-16.23,24.82,14.39,32.72,45.78,35.51,75.67-2.09-6.6-4.72-12.73-7.85-18.27-6.87-12.13-12.45-17.26-27.34-15.63-17.14,1.88-31.27,9.93-44.94,17.72-5.87,3.34-11.94,6.8-18.08,9.66-43.7,20.3-97.07,21.52-158.61,3.64-45.34-13.17-94.3-36.14-149.67-70.21-1.94-1.2-5.62-3.69-9.88-6.57-21.16-14.33-32.02-21.17-36.52-21.33-3.36-.11-6.05,1.64-8.21,3.04-.42.27-.83.54-1.24.79-6.57,3.95-13.17,8.99-19.56,13.86-4.35,3.31-8.84,6.74-13.16,9.69-32.38,22.11-82.61,52.78-138.03,73.37-58.04,21.56-108.74,27.28-150.69,17.01-1.77-.43-9.67-2.74-12.33-3.63-.84-4.02,4.04-19.77,7.72-27.91,4.76-10.5,10.03-18.07,13.75-19.75,6.37-2.87,19.95-.52,30.86,1.37,5.43.94,10.57,1.83,14.66,2.09,18.9,1.23,38.59-2.22,53.62-5.37,56.75-11.86,103.7-46.55,149.11-80.09,6.57-4.85,13.36-9.87,20.02-14.69l4.14-3-4.29-2.78c-32.21-20.82-67.71-40.68-109.02-45.03-51.58-5.43-94.3,9.86-130.62,46.74-31.67,32.17-54.23,75.83-76.05,118.06-2.27,4.39-4.52,8.75-6.77,13.08-5.29,10.17-10.8,20.48-16.13,30.45-22.83,42.72-46.44,86.9-60.9,134.37l-.24.98c-1.83-15.74.48-34.55,6.95-57,4.77-16.55,12.29-30.61,20.24-45.51ZM612.34,162.83c-18.45-10.55-37.51-23.76-56.72-39.31,29.7-12.16,71.75-21.68,112.6-4.41,26.41,11.16,59.56,39.88,76.35,61.21.66.84,2.11,2.87,3.29,4.64-1.86.64-3.69,1.34-5.48,2.03-3.46,1.32-6.72,2.57-10.09,3.39-23.04,5.55-62.55,5.27-119.95-27.54ZM619.2,97.52c-23.87,0-48.84,5.81-74.36,17.45l-15.04-11.35c19.52-13.74,45.07-24.81,70.88-30.65,78.74-17.82,135.51,8.6,184.09,85.65l.25.39c2.65,4.17,4.02,6.63,4.72,8.07l-29.09,13.54c-16.58-21.52-36.72-40.92-58.4-56.23-25.36-17.9-53.36-26.88-83.04-26.88ZM399.37,551.28c-.83.93-2.08,2.18-3.78,3.69-7.11,6.31-20.06,15.23-30.05,19.33-19.94,8.18-40.1,5.5-59.93-7.97-15.12-10.27-29.33-26.79-39.48-45.75,19.37-3.9,40.04-6.89,62.15-2.6,26.5,5.13,49.65,19.09,71.1,33.31ZM412.25,525.34c2.48,2.27,5.19,4.75,8.31,6.44-3.3,3.15-9.32,8.73-12.21,11.11-1.96-1.26-3.93-2.52-5.89-3.79-15.08-9.72-30.68-19.77-48.12-26.07-17.14-6.19-34.77-9.29-52.36-9.29-13.9,0-27.78,1.94-41.34,5.83,2.15-2.59,7.87-5.72,9.99-6.88.49-.27.93-.51,1.32-.73,42.06-23.67,87.92-16.96,136.3,19.93,1.28.98,2.6,2.18,3.99,3.46ZM782.41,507.93s0-.05,0-.08c.14-2.93,4.21-12.89,29.95-46.63l.37-.48c7.36-9.65,15.85-20.46,24.93-30.25-4.69,24.15-28.17,76.87-51.57,78.04-2.01.11-3.33-.31-3.68-.58ZM910.18,254.55c3.75,18.67,4.6,39.44,2.48,58.27-8.32-13.86-17.68-29.49-25.84-44.73-.63-1.18-1.42-2.63-2.31-4.27-4.98-9.17-14.24-26.24-15.78-32.57-.76-3.12.18-5.72,2.88-7.92,3.74-3.06,9.66-4.52,14.83-4.52,2.93,0,5.62.46,7.55,1.37,7.07,3.3,13.72,22.09,16.19,34.38ZM264.81,296.18c65.28-13.65,130.98-49.15,200.8-108.52,32.09,25.4,66.69,47.36,105.67,67.07,33.46,16.92,73.51,34.87,116.87,39.68,34.85,3.87,70.2-1.15,105.1-14.92l28.29,54.79c-.98.3-1.94.66-2.9,1.04-33.27,13.14-61.11,48.38-81.44,74.11-1.14,1.44-2.29,2.89-3.44,4.33-7.91,9.94-16.07,20.19-22.32,31.55-2.96-1.66-5.89-3.48-8.74-5.26-4.44-2.78-9.04-5.65-13.92-8-27.53-13.25-64.41-17.79-98.65-12.15-40.07,6.6-80.51,28.35-120.25,64.66-6.01-3.94-11.8-8.44-17.42-12.81-5.1-3.97-10.38-8.07-15.86-11.8-40.48-27.53-79.88-41.16-119.42-41.16-14.34,0-28.7,1.79-43.12,5.37-17.76,4.4-33.6,12.95-50.66,22.97-11.62-23-27.83-45.12-49.45-67.51-16.66-17.24-37.13-35.16-63.71-39.42l26.03-52.65c42.03,15.09,84.12,17.91,128.56,8.62ZM701.57,283.61c-60.13-3.56-147.36-45.7-198.91-83.55-3.85-2.83-7.93-6.32-11.87-9.7-5.5-4.71-11.19-9.59-16.71-13.07-.42-.27-.83-.57-1.25-.87-1.8-1.29-4.26-3.07-7.58-2.85-3.66.23-9.57,5.05-21.42,15.76-2.41,2.18-4.49,4.06-5.63,4.97-74.58,59.42-144.59,90.58-214.04,95.26-20.85,1.4-81.1-7.91-96.44-21.17-.59-.51-1.58-1.58-2.54-2.73,1.47.46,3.02,1,4.6,1.55,3.35,1.17,6.81,2.38,10.26,3.02,32.19,5.94,72.78,2.07,97.76-3.05,86.3-17.7,162.89-68.36,228.04-114.81,12.32,6.56,24.29,14.33,35.9,21.85,9.96,6.45,20.25,13.12,30.78,19.07,46.34,26.13,85.02,43.51,121.72,54.7,48.65,14.82,91.95,18.11,132.38,10.05,18.61-3.71,35.21-11.1,52.21-20.18-32.89,31.5-95.22,48.25-137.26,45.76ZM184.31,197.22c1.55-2.82,5.27-8.63,14.13-20.11l.28-.36c31.2-40.49,63.65-62.1,99.2-66.08,24.68-2.76,49.69,4.4,75.23,13.13-25.77,21.55-68.36,47.17-96.22,57.77-36.52,13.89-67.66,19.15-92.62,15.66ZM107.77,401.55c7.52-3.96,23.85,2.62,34.39,11.25,18.91,15.49,36,39.83,45.04,64.01-6.36,4.82-11.51,10.67-16.51,16.34-2.04,2.32-4.14,4.7-6.29,6.98-1.15-3.86-3.08-7.47-4.86-10.8-.34-.64-.69-1.28-1.02-1.91-14.71-28.04-36.32-52.05-55.7-71.9-.42-7.32,1.24-12.02,4.94-13.97ZM153.74,509.4c-12.72,4.53-21.73-7.69-29.89-20.67-8.23-13.11-17.96-32.53-20.71-54.31,11.8,12.31,24.42,26.67,34.83,43.01,7.51,11.78,15.33,27.09,15.76,31.97ZM660.11,506.99c-3.03-.92-5.65-1.71-7.33-2.04-54.44-10.9-101.33,18.62-125.6,38.46-3.76-2.98-12.14-10.4-14.2-12.54,5.24-3.09,10-7.05,14.62-10.89,3.24-2.69,6.59-5.48,9.99-7.86,38.51-26.94,81.14-33.97,116.96-19.3,4.57,1.87,15.56,7.86,18.95,10.83-.13.22-.26.45-.39.69-.75,1.33-2.42,4.29-3.42,5.23-1.8-.23-6.62-1.69-9.59-2.59ZM547.65,543.09c29.5-20.11,62.14-30.52,89.55-28.57,5.36.38,10.57,1.69,16.08,3.07,3.35.84,6.79,1.7,10.29,2.34-6.77,14.45-29.45,38.83-43.35,46.59-27.82,15.55-53.05,11.15-83.76-14.84l11.19-8.61ZM22.61,410.31c1.11-7.58,6.42-20.57,10.3-30.04,1.03-2.52,1.99-4.86,2.79-6.89,10.16-25.87,22.11-48.55,34.76-72.57,4.29-8.15,8.73-16.57,13.09-25.13,4.73-9.28,9.49-19.06,14.54-29.43,26.57-54.57,59.63-122.48,108.73-152.62,24.89-15.28,52.68-23.18,81.19-23.18,5.25,0,10.54.27,15.82.81,31.29,3.19,62.45,15.68,90.31,36.15-3.02,2.87-9.38,7.41-11.62,8.11-1.32-.33-4.8-2.03-6.93-3.07-2.29-1.12-4.46-2.18-6.01-2.72-40.54-14.17-75.43-14.94-106.67-2.36-28.45,11.46-53.95,33.62-80.23,69.74-1.01,1.39-2.47,3.76-4.15,6.5-1.96,3.2-5.61,9.15-6.73,10.11-1.79,1.32-5.93.23-9.59-.73-2.61-.69-5.31-1.4-7.78-1.46-23.99-.54-34.21,27.93-38.57,40.1-4.83,13.49-13.71,38.26,9.32,50.65-.4,1.31-1.29,3.61-3.12,7.63-.2.44-.37.81-.49,1.09-5.96,13.47-13.45,27.02-20.69,40.12-5.78,10.45-11.75,21.25-16.98,32.05-2,4.13-4.01,8.89-6.13,13.94-8.61,20.42-19.34,45.84-38.25,50.49-5.56,1.37-10.09.64-13.11-2.1-3.37-3.06-4.75-8.6-3.79-15.19ZM136.54,552.79c-41.23-21.33-63.2-92.24-63.22-135.22,0-4.43,5.16-13.43,8.93-20,1.85-3.22,3.59-6.25,4.7-8.64,1.01-2.16,2.44-5.77,4.11-9.95,2.95-7.42,8.45-21.24,10.72-23.37,1.47-1.38,7.2-3.06,10.36-3.06.05,0,.1,0,.15,0,24.59.44,68.1,49.41,84.16,71.68,8.19,11.35,13.6,21.02,17.33,30.99-1.43,1.17-3.29,2.86-5.81,5.15-2.96,2.7-7.91,7.21-10.9,9.32-5.18-13.99-12.82-26.08-18.52-33.98-11.48-15.91-37.12-43.79-60.39-47.34-7.88-1.2-14.9.45-20.85,4.91-8.31,6.23-8.12,14.3-7.94,21.42.82,33.9,14.85,72.13,34.93,95.14,7.79,8.93,15.24,13.33,22.77,13.45.11,0,.21,0,.31,0,11.29,0,20.3-9.69,29.02-19.07,2.88-3.1,5.86-6.3,8.87-9.11,31.72-29.6,59.21-47.76,86.52-57.16,32.39-11.15,65.81-10.28,102.18,2.67,34.39,12.24,61.9,32.63,94.28,58.03l2.42,1.9,2.19-2.15c27.93-27.4,73.35-61.56,131.11-68.71,34.96-4.32,75.03,5.61,99.71,24.72l.29.22c.23.18.57.44.87.69l-25.36,38.67c-21.69-15.17-47.11-22.11-73.76-20.05-25.33,1.94-51.32,11.78-75.15,28.45-5.15,3.6-9.96,7.64-14.62,11.55-5.07,4.26-10.32,8.66-15.85,12.35l-.69.46-.41.72c-2.24,3.93,1.65,8.58,10.65,16.89.34.31.62.57.83.77,22.45,21.18,48.04,42.17,78.5,42.17,12.18,0,25.13-3.36,38.97-11.39,27.99-16.25,56.69-63.85,79.75-102.1,7.28-12.08,14.16-23.49,20.08-32.3,17.93-26.72,60.11-80.48,91.4-92.65,4.4-1.71,8.07-2.76,9.49-2.91,2.63,2.28,9.86,13.8,13.41,19.46,2.46,3.92,4.4,7.01,5.6,8.64,1.79,2.42,3.97,4.82,6.09,7.14,5.03,5.52,10.24,11.22,10.42,17.49.4,14.14-5.27,40.17-7.02,47.81-8.46,36.95-29.72,86.98-61.82,106.39-13.61,8.23-28.27,10.35-43.56,6.31-5.1-1.35-21.12-7.99-23.46-10.19-3.98-3.76,2.46-21.97,8.75-32.42,3.88-6.45,7.81-10.84,12.28-13.7.29.26.65.62.92.89.65.66,1.39,1.41,2.31,2.03,10.67,7.26,20.95,14.26,32.89,14.26,6.2,0,12.85-1.89,20.23-6.6,26.26-16.78,47.7-79.2,46.73-108.03-.47-13.99-6.72-19.62-11.88-21.89-14.52-6.38-36.82,5.72-47.47,14.85-32.73,28.06-54.91,66.33-76.36,103.33-15.04,25.95-30.59,52.78-49.56,75.59-24.9,29.94-54.53,46.13-85.71,46.81-.68.01-1.35.02-2.03.02-33.38,0-67.91-17.84-97.47-50.4-3.04-3.35-7.21-7.95-8.85-11.98l-2.22-5.47-3.73,4.57c-22.9,28-60.23,62.13-108.05,65.71-21.65,1.63-43.47-3.99-63.11-16.23-18.13-11.3-34-27.81-45.91-47.76-2.85-4.78-5.34-9.9-7.75-14.85-2.32-4.76-4.71-9.68-7.47-14.42,1.86-2.22,11.32-11.79,15.49-15.63.83,1.44,1.77,3.5,2.27,4.57.58,1.26,1.04,2.25,1.45,2.93,23.71,39.57,49.58,60.86,79.08,65.09,3.1.44,6.15.66,9.17.66,35.41,0,64.98-29.21,89.11-53.05,1.31-1.3,2.61-2.58,3.88-3.83l2.8-2.75-30.14-24.33-.18-.14c-36.19-25.53-68.46-34.45-104.66-28.93-32.19,4.91-51.85,22.8-72.66,41.74-8.98,8.17-18.26,16.62-28.7,24-23.26,16.45-45.22,19.53-65.26,9.16ZM901.92,431.18c-10.65-21.99-25.03-41.02-38.94-59.43-8.78-11.62-17.86-23.63-25.91-36.28-11.81-18.54-22.75-39.24-32.54-61.56,8.52-3.71,18.58-8.65,27.74-15.48,2.61,5.09,5.08,10.29,7.49,15.36,3.72,7.82,7.56,15.91,11.93,23.65,4.46,7.89,10.26,16.98,16.4,26.6,20.04,31.38,44.98,70.44,43.31,99.29-.18,3.03-.82,6.25-1.5,9.66-.55,2.74-1.11,5.55-1.43,8.35-1.05.33-1.9.53-2.51.63-1.25-4.26-2.55-7.73-4.04-10.8ZM898.13,350.68c-6.14-10.91-12.82-21.73-19.29-32.2-13.32-21.57-27.08-43.85-36.63-67.83,4.95-4.12,9.46-8.71,13.84-13.17l1.64-1.66c5.66,12.25,10.99,23.49,16.96,34.58,5.92,10.99,12.68,21.86,19.21,32.38,6.69,10.76,13.6,21.88,19.47,32.92,13.16,24.77,15.97,50.6,8.51,80.2-1.85-23.14-12.27-44.88-23.72-65.22Z"/></g></svg>