<?xml version="1.0" encoding="UTF-8"?><svg id="_レイヤー_2" xmlns="http://www.w3.org/2000/svg" viewBox="0 0 789.31 768.94"><defs><style>.cls-1{fill:#333;}</style></defs><g id="_レイヤー_2-2"><path class="cls-1" d="M788.24,614.64c-.18-1.64-.36-3.22-.5-4.72-4.93-52.3-12.55-106.77-19.93-159.44-1.72-12.31-3.44-24.56-5.11-36.7-1.29-9.41-2.54-19.06-3.75-28.4-8.25-63.91-16.78-130-48.34-187.13-29.75-53.84-76.21-100.57-134.37-135.13-54.81-32.57-117.75-53.31-182.01-59.98-40.61-4.22-101.93-6.29-163.49,7.75-60.78,13.87-108.07,40.25-140.58,78.41l-.66.77-27.73,194.1,26.77,16.86.21.12c1.9,1.02,3.78,1.1,5.21,1.05,3.11-.11,8.22-3.31,19.23-10.92,2.71-1.88,5.28-3.65,6.64-4.45,81.02-47.79,189.32-64.71,297.13-46.44,43.65,7.4,84.37,20.11,121.04,37.78,27.52,13.26,52.3,29.14,74.02,47.39-70.36-42.76-157.44-69.33-245.35-74.85-93.31-5.86-180.34,11.66-251.67,50.67-29.25,16-48.9,30.96-63.71,48.51-16.72,19.81-27.22,42.96-33.06,72.87-7.34,37.62-13.45,75.3-17.21,106.08-3.03,24.83.5,49.31,10.5,72.77,8.92,20.92,22.98,41.08,41.81,59.93,42.94,42.99,97.11,66.77,125.58,77.11,55.13,20.03,116.33,30.28,178.22,30.28,29.84,0,59.85-2.38,89.42-7.2,46.46-7.57,90.34-20.88,130.42-39.54,42.25-19.68,79.37-44.93,110.33-75.05l14.22-17.49c.49,9.3,1.56,20.32,13.58,24.02,9.22,2.84,45.98,2.24,54.99,1.3,2.69-.28,5.12-.9,7.27-1.84l1.3,6.79,1.3-8.17c1.61-1.03,3.01-2.29,4.21-3.78,6.81-8.46,5.27-22.25,4.04-33.32ZM734.88,641.08c-1.77-.02-3.53.06-5.23.14-3.4.16-6.61.31-9.92-.28-4.08-.72-4.74-4.4-4.76-12.91,0-2.22,0-4.31-.25-6.22-4.89-39.32-21.23-75.47-48.56-107.45-24.34-28.48-56.96-53.25-96.95-73.62-69.98-35.65-158.39-55.34-236.49-52.67-49.37,1.69-102.24,12.33-145.05,29.21-54.82,21.61-93.6,53.28-112.16,91.6-15.46,31.92-16.48,63.65-3.05,94.29,11.57,26.4,34.26,51.92,65.62,73.8,26.4,18.42,58.19,33.78,89.52,43.26,77.5,23.44,174.45,24.17,259.35,1.94,45.9-12.02,86.49-30.01,120.64-53.48,36-24.75,63.76-54.94,82.57-89.79.1.29.2.57.3.86,3.44,9.91,6.99,20.14,8.78,30.57-59.29,86.16-169.69,120.65-230.4,133.56-58.26,12.39-121.01,14.88-181.46,7.2-64.56-8.2-123.72-27.92-171.09-57.03-33.7-20.71-63.4-48.63-81.48-76.6-23.34-36.11-27.43-70.66-12.16-102.7,12.35-25.9,30.34-49.4,53.48-69.87,21.37-18.9,46.59-34.79,74.97-47.23,55.28-24.24,122.92-36.71,193.3-36.71,41.39,0,83.74,4.32,125.04,13.1,57.58,12.24,109.39,32.11,153.98,59.08,48.09,29.08,85.35,65.08,110.76,107.02,18.61,30.73,29.84,62.91,35.18,100.98-3.72,0-7.46,0-11.18.02-7.65.02-15.55.04-23.31-.04ZM683.13,564.5c0,1.16-1.11,6.87-16.62,29.17l-.18.26c-44.67,64.24-129.3,110.08-232.2,125.77-113.95,17.37-228.16-5.58-298.05-59.89-66.3-51.52-61.74-103.13-56.65-123.04l3.23-9.92c6.34-15,14.16-28.1,20.1-33.9,34.69,55.65,98.4,80.1,133.48,89.76,52.32,14.4,113.46,17.59,172.15,8.98,61.73-9.05,117.31-30.14,160.74-61,20.28-14.41,35.96-29.48,46.66-44.85,7.02,4.57,28.52,24.75,33.43,30.02,1.77,2.3,27.33,35.59,33.91,48.63ZM449.94,570.15c-54.43,13.82-117.4,16.64-172.77,7.73-65.23-10.49-117.32-36.27-150.66-74.55-4.45-5.11-13.98-18.04-14.52-20.95,0-.05-.01-.09-.02-.13,0-.01.01-.03.02-.04,1.65-2.47,16.18-15.7,20.1-18.82,22.25-17.7,86.98-59.17,207.17-61.97,86.75-2,176.5,21.22,246.22,63.78,4.72,2.88,15.55,9.87,20.06,13.25-34.51,42.44-89.62,74.95-155.6,91.71ZM228.96,25.13c55.77-13.42,112.16-12.85,149.64-10.01,66.49,5.04,131.41,25.02,187.72,57.79,59.87,34.83,106.94,82.78,136.12,138.65,26.79,51.29,34.29,110.15,41.54,167.07,1.42,11.17,2.87,22.56,4.47,33.91l-13.77-28.14-.12-.23c-53.49-91.26-152.01-156.78-277.43-184.49-40.18-8.88-81.08-13.34-121.14-13.34-27.63,0-54.86,2.12-81.18,6.39-68.71,11.14-128.44,35.92-177.69,73.69l25.12-171.22c29.69-33.42,72.31-56.99,126.71-70.08ZM82.37,278.95c18.47-13.22,37.56-26.89,58.19-37.04,83.02-40.87,191.82-52.66,298.49-32.37,53.17,10.11,102.41,27.45,146.35,51.53,46.39,25.42,84.46,57.13,113.16,94.25,22.11,28.6,49.45,77.22,56.94,109.08,1.17,4.99,1.85,10.47,2.38,15.97l-10.19-20.94-.12-.22c-14.22-24.54-33.58-49.09-59.18-75.06-2.14-2.17-4.9-4.35-7.57-6.46-2.73-2.16-5.54-4.38-7.43-6.41-3.5-3.75-6.81-8.15-10.31-12.8-3.38-4.49-6.87-9.12-10.61-13.22-44.42-48.67-107.34-85.46-181.96-106.41-44.62-12.52-92.25-18.91-139.05-18.91-24.74,0-49.26,1.79-72.95,5.39-63.09,9.61-120.08,31.37-164.97,62.98l-13.09-7.99,1.91-1.37ZM772.19,591.42c-10.86-33.42-27.96-64.47-50.87-92.35-21.9-26.64-49.24-50.58-81.26-71.15-72.36-46.49-151.33-65.68-204.83-73.59-30.04-4.45-60.45-6.65-90.46-6.65-51.17,0-101.18,6.4-146.12,19.01-41.29,11.58-77.53,28.23-107.71,49.48-29.29,20.63-52.88,45.64-70.3,74.5.9-5.89,1.76-11.97,2.67-18.34,3.27-22.94,6.65-46.66,12.18-66.52,5.98-21.46,18.66-41.37,37.68-59.18,16.87-15.79,38.75-30,65.04-42.23,60.68-28.22,123.73-36.87,148.02-39.28,79.09-7.83,164.94,4.22,241.74,33.97,82.67,32.02,149.53,81.9,193.36,144.24,33.84,48.13,43.77,86.7,50.85,148.1Z"/></g></svg>