<?xml version="1.0" encoding="UTF-8"?><svg id="_レイヤー_2" xmlns="http://www.w3.org/2000/svg" viewBox="0 0 833.54 678.86"><defs><style>.cls-1{fill:#333;}</style></defs><g id="_レイヤー_2-2"><path class="cls-1" d="M809,209.44C742.82,69.39,603.92-10.45,446.52,1.1c-14.35,1.05-28.96,3.42-43.09,5.71-15.78,2.56-32.1,5.21-48.09,6.02l-3.86.2c-54.45,2.76-90.43,4.59-141.63,27.9-63.51,28.91-86.96,60.29-122.46,107.78-4.4,5.88-8.95,11.97-13.81,18.37-5.84,7.7-11.79,15.08-17.53,22.23C28.86,223.11,3.18,255.05.44,305.56c-2.89,53.36,8.47,129.22,35.79,170.96,33.65,51.42,89.97,116.89,147.12,146.4,55.15,28.48,180.73,54.99,241.03,55.91,1.19.02,2.37.03,3.54.03,36.62,0,64.71-8.77,97.08-18.87,5.88-1.83,11.96-3.73,18.22-5.61,4.81-1.44,9.54-2.85,14.22-4.24,44.61-13.23,83.14-24.65,122.9-53.19,29.62-21.26,56.24-46.95,79.13-76.36,23.33-29.97,41.59-62.31,54.29-96.12,13.37-35.61,20.03-71.54,19.79-106.82-.25-37.89-8.51-74.3-24.54-108.22ZM693.9,375.29c-14.2,58.06-57.45,108.38-121.76,141.69-59.21,30.67-129.76,42.47-188.74,31.58-61.83-11.42-117.59-35.96-157.04-69.1-22.52-18.93-39.67-40.53-50.96-64.2-12.4-26.01-17.78-54.71-15.99-85.3,2.93-49.93,25.59-69.26,62.32-96.68,36.06-26.91,111.74-71.12,161.31-75.2,37.47-3.09,108.67,12.39,143.56,24.25,51.72,17.6,112.31,58.09,150.78,100.78,21.81,24.2,26.59,50.91,16.5,92.17ZM131.01,190.18c54.5-30.56,117.24-37.96,173.33-37.96,10.76,0,21.27.27,31.44.71-78.45,28.38-184.43,94.69-226.58,188.96-22.58,50.49-23.56,101.86-2.93,152.69,11.91,29.35,34.55,58.25,67.29,85.91,24.92,21.05,51.89,38.09,74.03,50.48-59.25-16.43-107.76-50.99-158.9-112.44-36.94-44.39-63.46-80.91-68.21-147-4.94-68.64,53.17-149.19,110.54-181.36ZM109.65,402.19c3.74-31.35,15.93-62.45,35.48-90.79-6.42,37.64-.94,75.78,16.12,111.24,18.2,37.83,49.34,71.03,87.66,93.48,56.58,33.14,117.72,51.28,176.79,52.46,2.16.04,4.3.07,6.46.07,60.25,0,117.49-16.93,170.22-50.37,34.69-22,63.43-50.31,83.09-81.88,19.18-30.78,29.02-64.04,28.82-97.06,12.26,27.94,17.64,57.97,15.6,87.51-2.28,33.15-13.89,65.72-33.57,94.18-43.01,62.19-128.52,107.77-194.2,129.7-26.69,8.91-84.75,20.51-173.71-1.89-59.15-14.9-162.93-82.39-195.22-137.01-19.93-33.71-28.07-71.62-23.53-109.63ZM636.09,602.11l.13-.08c62.45-41.41,102.3-102.66,109.34-168.04,3.19-29.62-.34-59-10.49-87.31-10.65-29.69-28.33-57.4-52.56-82.35-69.48-71.55-148.96-107.85-265.76-121.39-34.68-4.02-71.01-6.97-107.27-6.97-118.5,0-236.09,31.58-291.54,160.62,2.51-20.17,8.23-37.45,17.1-51.57,14.24-18.04,28.13-37.29,41.56-55.9,15.5-21.48,31.52-43.68,48.13-64.08,46.23-56.79,123.18-92.79,205.85-96.3,5.95-.25,11.99-.23,17.83-.21,8.58.03,17.46.06,26.38-.76,12.02-1.11,24.04-3.02,35.67-4.86,16.92-2.69,34.42-5.47,51.9-5.74,76.98-1.19,148.59,17.8,207.07,54.92,29.59,18.78,55.89,42.16,78.17,69.48,22.85,28.03,41.56,60.34,55.61,96.02,22.94,58.27,16.84,142.63-14.83,205.14-41.28,81.47-101.7,141.25-172.49,171.5l20.2-12.12Z"/></g></svg>