<?xml version="1.0" encoding="UTF-8"?><svg id="_レイヤー_2" xmlns="http://www.w3.org/2000/svg" xmlns:xlink="http://www.w3.org/1999/xlink" viewBox="0 0 833.54 678.86"><defs><style>.cls-1{fill:url(#_名称未設定グラデーション_6);}.cls-2{fill:url(#_名称未設定グラデーション_5);}.cls-3{fill:#333;}.cls-4{fill:url(#_名称未設定グラデーション_10);}</style><linearGradient id="_名称未設定グラデーション_10" x1="108.42" y1="486.59" x2="730.32" y2="486.59" gradientUnits="userSpaceOnUse"><stop offset="0" stop-color="#de8a0b"/><stop offset=".27" stop-color="#e99e2a"/><stop offset=".83" stop-color="#e9a10d"/><stop offset="1" stop-color="#ce6d21"/></linearGradient><linearGradient id="_名称未設定グラデーション_6" x1="38.51" y1="123.25" x2="288.68" y2="429.29" gradientUnits="userSpaceOnUse"><stop offset="0" stop-color="#ce6d21"/><stop offset=".92" stop-color="#e99e2a"/></linearGradient><linearGradient id="_名称未設定グラデーション_5" x1="185.69" y1="32.66" x2="769.2" y2="578.58" gradientUnits="userSpaceOnUse"><stop offset="0" stop-color="#e99e2a"/><stop offset=".8" stop-color="#ce6d21"/></linearGradient></defs><g id="_レイヤー_2-2"><path class="cls-3" d="M809,209.44C742.82,69.39,603.93-10.45,446.52,1.1c-14.35,1.06-28.96,3.43-43.09,5.72-15.77,2.56-32.09,5.2-48.09,6.02l-3.86.2c-54.45,2.76-90.43,4.58-141.63,27.89-63.5,28.91-86.96,60.29-122.46,107.78-4.4,5.88-8.95,11.97-13.8,18.36-5.85,7.7-11.79,15.09-17.54,22.23C28.86,223.11,3.18,255.05.44,305.56c-2.89,53.36,8.48,129.22,35.79,170.97,33.65,51.42,89.97,116.89,147.12,146.4,55.15,28.47,180.73,54.98,241.03,55.91,1.19.01,2.37.02,3.54.02,36.62,0,64.71-8.76,97.08-18.87,5.88-1.83,11.96-3.73,18.22-5.61,4.81-1.45,9.54-2.85,14.22-4.24,44.61-13.22,83.14-24.65,122.89-53.19,29.62-21.26,56.25-46.95,79.13-76.35,23.33-29.97,41.59-62.31,54.29-96.12,13.37-35.61,20.03-71.55,19.79-106.82-.25-37.89-8.51-74.3-24.54-108.22ZM88.69,518.53c-36.94-44.39-63.46-80.91-68.21-147-4.94-68.64,53.17-149.19,110.54-181.35,54.5-30.56,117.23-37.96,173.33-37.96,10.75,0,21.27.27,31.43.7-78.44,28.38-184.43,94.7-226.58,188.96-22.58,50.49-23.56,101.87-2.93,152.7,11.91,29.35,34.55,58.25,67.29,85.91,24.92,21.04,51.88,38.09,74.03,50.48-59.25-16.43-107.76-51-158.9-112.44ZM383.06,158.08c37.48-3.09,108.67,12.39,143.56,24.26,51.72,17.59,112.31,58.09,150.78,100.77,21.82,24.2,26.6,50.91,16.5,92.18-14.2,58.05-57.44,108.38-121.76,141.69-59.21,30.67-129.76,42.47-188.73,31.58-61.83-11.42-117.6-35.96-157.04-69.1-22.52-18.93-39.67-40.53-50.95-64.2-12.41-26.01-17.78-54.71-15.99-85.3,2.93-49.93,25.59-69.26,62.32-96.68,36.06-26.91,111.74-71.12,161.31-75.2ZM502.12,650.72c-26.69,8.91-84.75,20.51-173.72-1.89-59.15-14.9-162.92-82.39-195.22-137.01-19.93-33.71-28.07-71.62-23.53-109.63,3.74-31.36,15.93-62.46,35.48-90.79-6.43,37.63-.95,75.78,16.11,111.24,18.21,37.83,49.34,71.03,87.67,93.48,56.58,33.13,117.71,51.27,176.79,52.45,2.16.05,4.3.07,6.46.07,60.25,0,117.49-16.93,170.21-50.37,34.7-22,63.43-50.31,83.1-81.88,19.18-30.78,29.01-64.04,28.82-97.06,12.26,27.94,17.64,57.97,15.61,87.52-2.29,33.15-13.9,65.72-33.58,94.17-43.01,62.19-128.52,107.78-194.2,129.7ZM788.38,442.73c-41.28,81.47-101.7,141.25-172.49,171.5l20.2-12.12.14-.08c62.44-41.41,102.3-102.66,109.34-168.04,3.19-29.63-.34-59-10.5-87.31-10.64-29.7-28.33-57.4-52.56-82.35-69.48-71.55-148.96-107.85-265.75-121.39-34.69-4.02-71.01-6.97-107.27-6.97-118.5,0-236.1,31.58-291.54,160.62,2.51-20.17,8.23-37.45,17.1-51.57,14.24-18.04,28.13-37.28,41.56-55.89,15.5-21.48,31.52-43.69,48.12-64.08,46.23-56.79,123.18-92.79,205.86-96.3,5.94-.25,11.98-.23,17.83-.21,8.58.02,17.45.05,26.37-.77,12.03-1.11,24.05-3.02,35.67-4.86,16.92-2.69,34.42-5.47,51.9-5.74,76.99-1.19,148.59,17.8,207.07,54.92,29.59,18.78,55.89,42.16,78.17,69.48,22.85,28.03,41.56,60.34,55.61,96.02,22.94,58.27,16.84,142.63-14.83,205.14Z"/><path class="cls-4" d="M729.9,426.85c-2.29,33.15-13.9,65.72-33.58,94.17-43.01,62.19-128.52,107.78-194.2,129.7-26.69,8.91-84.75,20.51-173.72-1.89-59.15-14.9-162.92-82.39-195.22-137.01-19.93-33.71-28.07-71.62-23.53-109.63,3.74-31.36,15.93-62.46,35.48-90.79-6.43,37.63-.95,75.78,16.11,111.24,18.21,37.83,49.34,71.03,87.67,93.48,56.58,33.13,117.71,51.27,176.79,52.45,2.16.05,4.3.07,6.46.07,60.25,0,117.49-16.93,170.21-50.37,34.7-22,63.43-50.31,83.1-81.88,19.18-30.78,29.01-64.04,28.82-97.06,12.26,27.94,17.64,57.97,15.61,87.52Z"/><path class="cls-1" d="M173.56,580.49c24.92,21.04,51.88,38.09,74.03,50.48-59.25-16.43-107.76-51-158.9-112.44-36.94-44.39-63.46-80.91-68.21-147-4.94-68.64,53.17-149.19,110.54-181.35,54.5-30.56,117.23-37.96,173.33-37.96,10.75,0,21.27.27,31.43.7-78.44,28.38-184.43,94.7-226.58,188.96-22.58,50.49-23.56,101.87-2.93,152.7,11.91,29.35,34.55,58.25,67.29,85.91Z"/><path class="cls-2" d="M788.38,442.73c-41.28,81.47-101.7,141.25-172.49,171.5l20.2-12.12.14-.08c62.44-41.41,102.3-102.66,109.34-168.04,3.19-29.63-.34-59-10.5-87.31-10.64-29.7-28.33-57.4-52.56-82.35-69.48-71.55-148.96-107.85-265.75-121.39-34.69-4.02-71.01-6.97-107.27-6.97-118.5,0-236.1,31.58-291.54,160.62,2.51-20.17,8.23-37.45,17.1-51.57,14.24-18.04,28.13-37.28,41.56-55.89,15.5-21.48,31.52-43.69,48.12-64.08,46.23-56.79,123.18-92.79,205.86-96.3,5.94-.25,11.98-.23,17.83-.21,8.58.02,17.45.05,26.37-.77,12.03-1.11,24.05-3.02,35.67-4.86,16.92-2.69,34.42-5.47,51.9-5.74,76.99-1.19,148.59,17.8,207.07,54.92,29.59,18.78,55.89,42.16,78.17,69.48,22.85,28.03,41.56,60.34,55.61,96.02,22.94,58.27,16.84,142.63-14.83,205.14Z"/></g></svg>